<svg xmlns="http://www.w3.org/2000/svg" viewBox="0 0 920 330" role="img" aria-labelledby="title desc">
<title id="title">Valtec Soluções</title><desc id="desc">Assistência Técnica</desc>
<g transform="translate(20 22)">
  <path d="M20 62h86l84 151 82-151h84L228 286c-17 29-58 29-75 0L20 62z" fill="#1495df"/>
  <path d="M129 236 206 99h82l-95 166c-14 24-49 24-64 0z" fill="#6fba3a"/>
  <path d="M171 275h80l75-131-54 142c-9 23-39 37-64 25z" fill="#f97316"/>
  <g transform="rotate(33 173 140)" fill="#fff">
    <rect x="154" y="34" width="38" height="215" rx="19"/>
    <circle cx="173" cy="34" r="47"/>
    <path d="M139 5h68l-16 43h-36z" fill="#091930"/>
  </g>
</g>
<g font-family="Arial,Helvetica,sans-serif">
  <text x="368" y="170" fill="#fff" font-size="112" font-weight="800" letter-spacing="5">VALT</text>
  <text x="665" y="170" fill="#fff" font-size="112" font-weight="800">C</text>
  <rect x="614" y="89" width="62" height="22" rx="5" fill="#6fba3a"/><rect x="614" y="122" width="62" height="22" rx="5" fill="#f97316"/><rect x="614" y="155" width="62" height="22" rx="5" fill="#1495df"/>
  <line x1="367" y1="210" x2="430" y2="210" stroke="#fff" stroke-width="5"/><line x1="804" y1="210" x2="866" y2="210" stroke="#fff" stroke-width="5"/>
  <text x="446" y="229" fill="#6fba3a" font-size="43" font-weight="700" letter-spacing="17">SOLUÇÕES</text>
  <text x="392" y="288" fill="#fff" font-size="37" letter-spacing="12">ASSISTÊNCIA TÉCNICA</text>
</g></svg>